<?xml version="1.0" encoding="UTF-8" standalone="no"?>
<!-- Created with Inkscape (http://www.inkscape.org/) -->

<svg
   version="1.1"
   id="svg582"
   width="188"
   height="187"
   viewBox="0 0 188 187"
   sodipodi:docname="Polo.svg"
   inkscape:version="1.1.1 (3bf5ae0d25, 2021-09-20)"
   xmlns:inkscape="http://www.inkscape.org/namespaces/inkscape"
   xmlns:sodipodi="http://sodipodi.sourceforge.net/DTD/sodipodi-0.dtd"
   xmlns="http://www.w3.org/2000/svg"
   xmlns:svg="http://www.w3.org/2000/svg">
  <defs
     id="defs586" />
  <sodipodi:namedview
     id="namedview584"
     pagecolor="#505050"
     bordercolor="#eeeeee"
     borderopacity="1"
     inkscape:pageshadow="0"
     inkscape:pageopacity="0"
     inkscape:pagecheckerboard="0"
     showgrid="false"
     inkscape:zoom="4.4491979"
     inkscape:cx="36.411058"
     inkscape:cy="75.631611"
     inkscape:window-width="1920"
     inkscape:window-height="1017"
     inkscape:window-x="1912"
     inkscape:window-y="-8"
     inkscape:window-maximized="1"
     inkscape:current-layer="g588" />
  <g
     inkscape:groupmode="layer"
     inkscape:label="Image"
     id="g588">
    <path
       style="fill:#000000"
       d="M 0,93.5 V 0 h 94 94 V 93.5 187 H 94 0 Z m 62.638374,91 C 62.291266,183.59545 62.633305,183 63.5,183 c 0.866695,0 1.208734,0.59545 0.861626,1.5 -0.444283,1.15778 0.225292,1.5 2.934872,1.5 6.486423,0 5.892793,-8.54236 -1.046498,-15.05914 C 63.3625,168.22917 61,165.51 61,164.89827 c 0,-0.61174 -0.675,-0.85323 -1.5,-0.53664 -0.825,0.31658 -1.5,0.22259 -1.5,-0.20887 0,-0.65921 -7.443303,-5.3894 -9,-5.71948 -0.275,-0.0583 -1.2875,-0.40465 -2.25,-0.76965 -4.186392,-1.58756 -4.75,-1.56765 -4.75,0.16775 0,0.97274 -0.5625,2.37464 -1.25,3.11532 -1.00511,1.08287 -0.992075,1.20039 0.06654,0.59987 0.792279,-0.44945 1.874689,-0.0101 2.718196,1.10329 0.819535,1.08176 1.414871,1.331 1.433466,0.60014 0.01749,-0.6875 0.529948,-1.25 1.138792,-1.25 0.608844,0 0.861952,0.63855 0.562463,1.41901 -0.299489,0.78046 0.389597,2.46796 1.531302,3.75 2.075827,2.33099 2.075827,2.33099 1.40716,-0.66901 -0.488517,-2.19175 -0.395192,-2.59587 0.346396,-1.5 0.558286,0.825 1.021955,2.77963 1.030377,4.34362 0.01077,2.00017 0.611778,2.9996 2.026252,3.36949 2.136741,0.55877 3.585657,4.2898 2.63151,6.77627 -0.336469,0.87682 0.544116,2.52993 2.131935,4.00224 3.010787,2.79176 5.767657,3.3633 4.86399,1.00838 z M 186,146.02346 c 0,-37.11939 0,-37.11939 -2.75,-39.53982 -4.90776,-4.31961 -8.09193,-0.91776 -3.99336,4.26636 0.67898,0.85881 0.60146,1.25 -0.24769,1.25 -1.38009,0 -1.14769,1.81255 1.53864,12 0.94269,3.575 2.30811,6.98351 3.03427,7.57447 1.8267,1.48659 1.36709,5.20562 -0.71047,5.74891 -1.37539,0.35967 -1.57547,1.1099 -1.01673,3.81221 1.00292,4.85049 0.53269,9.76523 -1.11875,11.69295 -3.27645,3.82458 -2.69231,6.41759 2.04264,9.06741 1.53807,0.86074 1.5458,1.09467 0.0917,2.77206 -2.49891,2.88257 -3.00945,6.52066 -1.19621,8.52426 1.44917,1.60133 1.45153,1.82233 0.0252,2.36964 -1.75537,0.6736 -1.30489,2.85878 1.20274,5.83419 1.20585,1.4308 1.28972,2.00391 0.34177,2.33541 -0.69093,0.24162 -0.99974,0.85433 -0.68624,1.36157 C 185.37472,189.6514 186,182.55496 186,146.02346 Z m -26.74941,29.50708 c -0.52366,-2.73937 -2.91265,-5.20182 -3.9958,-4.11867 -0.38328,0.38328 -0.0349,1.11552 0.77417,1.62719 1.2338,0.78028 1.18881,0.93278 -0.27896,0.94563 -1.20408,0.0105 -1.75,-0.76457 -1.75,-2.48469 0,-1.68421 0.57105,-2.52576 1.75,-2.57895 1.04544,-0.0472 1.24674,-0.28201 0.5,-0.58333 -1.74238,-0.70306 -1.60082,-3.55101 1.2952,-26.05756 1.39987,-10.87909 3.20009,-25.63016 4.0005,-32.78016 2.27253,-20.300253 7.30375,-62.206689 8.46411,-70.5 0.57716,-4.125 1.48313,-11.775 2.01328,-17 0.53014,-5.225 1.34962,-11.8625 1.82106,-14.75 C 174.66917,2.1968449 8.1551327,-1.7551327 3.2,3.2 c -5.7227304,5.7227304 -1.0962816,15.476557 9.55,20.134028 21.970427,9.611488 20.710565,8.152484 21.027044,24.350723 0.277043,14.17984 0.277043,14.17984 5.864343,11.621889 11.817281,-5.41013 31.936179,-4.221525 45.083287,2.663478 C 110.42767,75.43051 121.19831,91.249322 110.37247,99.638972 102.6012,105.66144 99.593037,107.03047 96.242559,106.06956 92.92882,105.1192 92,105.49258 92,107.77507 c 0,1.03852 0.699203,1.26626 2.5,0.81429 3.046277,-0.76457 3.242665,-0.0572 0.405651,1.46113 -1.70776,0.91397 -2.492253,0.7523 -4.25,-0.87584 -2.623007,-2.42961 -6.404223,-2.98584 -9.33991,-1.37395 C 80.114399,108.46031 78.201899,109 77.065741,109 75.929584,109 75,109.483 75,110.07332 c 0,0.59033 -0.69877,0.92783 -1.552821,0.75 -0.854052,-0.17782 -1.529052,-0.77332 -1.5,-1.32332 0.05569,-1.05436 0.406303,-1.15695 4.802821,-1.40541 2.473886,-0.1398 2.562962,-0.26409 0.887163,-1.23784 -1.02456,-0.59533 -2.71206,-1.93165 -3.75,-2.96959 C 72.104066,102.10407 70.382418,101.81365 61,101.71331 c -6.557529,-0.0701 -6.753138,16.33298 -0.259173,21.73336 1.358027,1.12933 3.311463,2.8304 4.340968,3.78014 1.424604,1.31424 3.361739,1.67262 8.107764,1.5 5.71808,-0.20797 6.337542,-0.0243 7.459462,2.21186 1.858998,3.70525 5.979903,5.57526 7.948321,3.60684 1.908753,-1.90875 2.501452,-1.96654 1.814716,-0.17693 -0.682424,1.77837 3.309283,2.85092 5.749615,1.5449 C 97.389712,135.25625 98,133.80705 98,131.54815 c 0,-1.85982 0.560992,-3.56848 1.246648,-3.79703 0.829242,-0.27642 1.366152,-3.32547 1.603572,-9.10655 C 101.16278,111.0336 110,97.75398 110,104.89526 c 0,0.54523 -0.90693,1.62657 -2.0154,2.40298 -1.82985,1.28167 -1.27785,1.47315 5.99544,2.07972 12.24084,1.02084 19.68025,5.38109 18.28493,10.7168 -0.36511,1.39618 0.005,2.47704 1.04934,3.06126 1.32484,0.74142 1.4168,1.39009 0.51375,3.62353 -0.60499,1.49625 -1.02917,3.99046 -0.94263,5.54269 0.0947,1.69778 -0.2496,2.57073 -0.86404,2.19098 -0.56177,-0.34719 -1.07463,-0.0422 -1.1397,0.67776 -0.0651,0.71996 -0.46184,-0.041 -0.88169,-1.69098 -0.76337,-3 -0.76337,-3 -0.88169,-0.25 -0.0651,1.5125 -0.53851,2.75 -1.05209,2.75 -0.51358,0 -0.72978,-1.125 -0.48044,-2.5 0.48085,-2.65171 -0.99527,-3.48123 -1.91762,-1.07762 -0.33406,0.87053 -1.34549,1.21325 -2.60699,0.88337 -1.51651,-0.39658 -2.09182,-0.0458 -2.17717,1.32762 -0.10417,1.67628 -0.16264,1.68817 -0.57333,0.11663 -0.25152,-0.9625 -0.8602,-1.75 -1.35261,-1.75 -0.49241,0 -0.63627,0.675 -0.31969,1.5 0.36449,0.94984 -0.0138,1.5 -1.03138,1.5 C 116.72314,136 116,135.29844 116,134.44098 c 0,-0.85746 -0.45318,-1.27893 -1.00706,-0.93661 -0.55389,0.34231 -1.29593,-0.13038 -1.64899,-1.05045 -0.58531,-1.52527 -0.72139,-1.53086 -1.54263,-0.0634 -0.49539,0.8852 -1.52034,1.60946 -2.27769,1.60946 -0.75734,0 -1.52248,0.72739 -1.70031,1.61643 -0.27683,1.384 -0.6828,1.30115 -2.82332,-0.57619 -1.375,-1.20594 -1.9375,-1.90677 -1.25,-1.55741 0.6875,0.34936 1.25,0.15865 1.25,-0.42381 0,-0.58244 -0.7063,-1.059 -1.56955,-1.059 -1.02913,0 -1.45952,0.72286 -1.25,2.09938 0.40129,2.63635 7.0196,5.24631 8.90511,3.51176 0.89919,-0.82719 1.0275,-0.79171 0.50213,0.13886 -0.74534,1.32017 0.59125,1.73772 1.77459,0.55439 1.27194,-1.27194 3.53547,-1.13252 4.71648,0.29051 0.64137,0.7728 0.75679,1.4051 0.25649,1.4051 -0.5003,0 -0.97668,0.88993 -1.05861,1.97763 -0.18529,2.45982 4.28319,6.12851 6.45123,5.29656 1.10281,-0.42319 1.36268,-0.22972 0.83604,0.62241 -0.89291,1.44474 2.0758,4.02416 4.68609,4.0716 0.9625,0.0175 1.75,0.47265 1.75,1.01148 0,0.53882 1.71356,1.85387 3.80792,2.92233 2.09435,1.06846 6.93185,5.45004 10.75,9.73684 C 154.22281,175.36732 156,177.1818 156,176.3 c 0,-0.385 0.54,-0.16 1.2,0.5 1.86373,1.86373 2.56638,1.42874 2.05059,-1.26946 z M 103.40146,165.1135 C 105.50198,164.28948 97.832107,159 94.536747,159 c -3.893498,0 -6.395685,-3.02281 -7.087834,-8.56259 -0.458908,-3.67297 -1.042015,-5.1862 -1.812722,-4.70421 -0.624905,0.39081 -1.766143,0.8058 -2.536085,0.9222 -0.769941,0.1164 -1.669941,0.57905 -2,1.02812 C 80.770048,148.13258 76.45,148.5 71.5,148.5 c -10.5112,0 -13.363526,0.75459 -11.471181,3.03473 1.060669,1.27802 0.962375,1.40266 -0.637375,0.80819 -2.247996,-0.83536 3.042584,3.79947 6.280111,5.50171 11.210028,5.89406 31.345778,9.77332 37.729905,7.26887 z M 130.58179,128 c 0.78001,0 1.38268,-0.7875 1.33926,-1.75 -0.0472,-1.04544 -0.28201,-1.24674 -0.58333,-0.5 -0.61356,1.52055 -3.03604,1.65503 -3.52254,0.19554 -0.19332,-0.57995 -1.11366,-1.16632 -2.04522,-1.30304 -0.93155,-0.13672 -2.61088,-1.30607 -3.73184,-2.59855 C 120.91715,120.75147 120,120.2031 120,120.82536 c 0,0.69679 -1.66452,1.05893 -4.33333,0.94277 -7.91151,-0.34432 -4.89922,-2.41395 3.40359,-2.33847 4.2553,0.0387 7.52875,-0.26716 7.27431,-0.67966 -0.25443,-0.4125 -5.27355,-0.70514 -11.15359,-0.65032 -5.88004,0.0548 -9.59934,0.40474 -8.26512,0.77758 2.46125,0.6878 4.14353,3.12274 2.15747,3.12274 -0.59583,0 -1.09022,-0.5625 -1.09864,-1.25 -0.0114,-0.93482 -0.22875,-0.91328 -0.86181,0.0854 -0.46557,0.73448 -1.19586,1.33541 -1.62288,1.33541 -0.42702,0 -1.15731,-0.60093 -1.62288,-1.33541 -0.60046,-0.94726 -0.85095,-0.64584 -0.86181,1.03703 -0.0129,1.99602 0.22269,2.17492 1.48469,1.12756 1.23219,-1.02262 1.5,-0.94468 1.5,0.43657 0,0.92481 0.43729,1.4112 0.97175,1.08089 0.53447,-0.33032 2.13154,0.15934 3.54905,1.08813 1.41752,0.92879 2.50194,1.28499 2.40983,0.79156 -0.44689,-2.39403 0.27564,-3.39715 2.44693,-3.39715 3.46865,0 5.34976,2.57654 2.43719,3.33819 -1.22508,0.32037 -1.9481,0.86179 -1.60673,1.20317 1.13938,1.13937 4.73976,-1.51387 4.14775,-3.05661 -0.31336,-0.81661 -0.0716,-1.48475 0.53724,-1.48475 0.60885,0 1.10699,1.215 1.10699,2.7 0,2.1 0.26667,2.43333 1.2,1.5 0.66,-0.66 1.8975,-1.16447 2.75,-1.12105 1.03919,0.0529 1.13601,0.24585 0.29377,0.58541 -0.69093,0.27855 -0.98291,0.9487 -0.64885,1.48922 0.33406,0.54052 1.27367,0.72709 2.08802,0.41459 C 128.49729,128.25568 129.80177,128 130.58179,128 Z M 98.20517,100.98833 c -2.396048,-3.465351 -4.291454,-4.478772 -7.706019,-4.120191 -0.550467,0.05781 -1.882651,-1.206915 -2.960408,-2.810495 -2.226161,-3.31227 -3.952782,-3.003882 -3.267008,0.583513 0.336704,1.761356 -0.308423,3.053371 -2.40583,4.818223 C 80.289657,100.7857 79,102.11081 79,102.40406 c 0,0.81211 3.408936,-0.62201 4.164657,-1.75205 0.407141,-0.6088 1.763186,-0.24962 3.5,0.92706 7.523152,5.09689 15.201353,4.70386 11.540513,-0.59074 z M 182.3298,65.407964 c -6.62015,-6.063817 -7.87473,-4.186717 -6.79824,10.171541 0.70119,9.352597 3.03629,14.681276 7.69536,17.560739 0.58293,0.360272 0.82919,1.537186 0.54724,2.615365 -0.28195,1.078179 -0.009,2.81174 0.6066,3.852358 0.86384,1.460293 1.18204,-1.837025 1.39445,-14.450003 0.27521,-16.342036 0.27521,-16.342036 -3.44541,-19.75 z M 87.808656,86.032423 C 91.243879,82.74954 91.297339,82.837524 83.715033,79.295116 76.917945,76.119558 69.97812,75.365566 65.966561,77.366795 64.201343,78.247402 62.361733,78.723563 61.878537,78.424932 61.395342,78.126301 61,78.610081 61,79.5 c 0,1.01141 -0.468643,1.348342 -1.25,0.898692 -0.6875,-0.395639 -0.923079,-0.357775 -0.523508,0.08414 0.399571,0.441916 4.59401,0.710469 9.320975,0.596784 8.280993,-0.19916 12.205485,0.893063 10.885134,3.029435 -0.299957,0.485342 0.604997,1.406586 2.011011,2.047209 C 82.849625,86.796884 84,87.698798 84,88.160515 c 0,1.316888 0.490742,1.042685 3.808656,-2.128092 z M 185.58565,14.252321 c -0.25069,-0.250696 -1.6097,-0.522525 -3.02002,-0.604066 -2.98803,-0.172759 -3.41476,-2.782934 -1.16419,-7.120923 1.40144,-2.7012818 1.40144,-2.7012818 2.07946,0.3856931 0.7841,3.5700149 2.53425,4.1589389 2.4873,0.8369749 -0.10228,-7.23581957 -7.52994,-8.11165567 -8.48065,-1 -0.34925,2.6125 -1.05182,7.195147 -1.56128,10.183659 -0.50945,2.988513 -0.85425,7.488513 -0.76623,10 0.12847,3.665653 0.23959,3.925294 0.56336,1.316341 0.43115,-3.474269 2.23349,-4.211794 4.2766,-1.75 0.68469,0.825 0.90969,1.5 0.5,1.5 -0.40969,0 -0.17566,0.685875 0.52006,1.524166 1.53397,1.84833 0.4315,3.327393 -1.23673,1.659167 -3.29312,-3.293127 -3.97425,3.032946 -0.76573,7.111913 1.23588,1.571171 1.62333,2.808636 1,3.193876 -1.68051,1.038611 -1.18286,3.043074 2.2324,8.991845 3.25,5.660918 3.25,5.660918 3.52073,-15.055958 0.14891,-11.394283 0.0656,-20.921992 -0.18508,-21.172688 z"
       id="path808" />
  </g>
</svg>
